<svg xmlns="http://www.w3.org/2000/svg" xmlns:xlink="http://www.w3.org/1999/xlink" viewBox="0 0 128 128"><defs><style>.a{fill:none;}.b{fill:url(#a);}.c{clip-path:url(#b);}.d{fill:#fff;}.e{fill:url(#c);}.f{clip-path:url(#d);}</style><linearGradient id="a" x1="-268.38" y1="151.83" x2="-268.38" y2="150.84" gradientTransform="matrix(128, 0, 0, -128, 34417, 19434)" gradientUnits="userSpaceOnUse"><stop offset="0" stop-color="#2aabee"/><stop offset="1" stop-color="#229ed9"/></linearGradient><clipPath id="b"><polygon class="a" points="47.12 78 104.73 32.82 19.5 32.82 19.5 78 47.12 78"/></clipPath><linearGradient id="c" x1="34.11" y1="93.89" x2="77.46" y2="50.54" gradientUnits="userSpaceOnUse"><stop offset="0" stop-color="#f49c52"/><stop offset="0.18" stop-color="#f19c54"/><stop offset="0.32" stop-color="#e79c5a"/><stop offset="0.45" stop-color="#d69c65"/><stop offset="0.57" stop-color="#be9d75"/><stop offset="0.69" stop-color="#9f9d88"/><stop offset="0.8" stop-color="#799da1"/><stop offset="0.91" stop-color="#4e9ebd"/><stop offset="1" stop-color="#229ed9"/></linearGradient><clipPath id="d"><polygon class="a" points="104.73 32.21 43.67 76.23 104.73 107.65 104.73 32.21"/></clipPath></defs><circle class="b" cx="64" cy="64" r="64"/><g class="c"><path class="d" d="M34,60Q62,47.8,71.35,43.92c17.77-7.39,21.47-8.68,23.87-8.72a4.2,4.2,0,0,1,2.48.74,2.68,2.68,0,0,1,.91,1.74,10.67,10.67,0,0,1,.11,2.52c-1,10.12-5.13,34.68-7.25,46-.9,4.8-2.66,6.4-4.37,6.56C83.38,93.11,80.56,90.32,77,88c-5.63-3.7-8.82-6-14.28-9.6-6.32-4.16-2.23-6.45,1.37-10.19,1-1,17.32-15.87,17.64-17.23a1.33,1.33,0,0,0-.3-1.13,1.48,1.48,0,0,0-1.32-.13q-.85.2-27,17.85c-2.55,1.75-4.87,2.61-6.94,2.56-2.29,0-6.68-1.29-10-2.35-4-1.31-7.19-2-6.92-4.21Q29.49,61.81,34,60Z"/></g><path class="e" d="M49.33,87.59a8.92,8.92,0,1,1-8.92-8.92A8.91,8.91,0,0,1,49.33,87.59ZM31.5,53.41V66A30.46,30.46,0,0,1,62,96.5H74.59A43.09,43.09,0,0,0,31.5,53.41Zm0-21.91v13a52,52,0,0,1,52,52h13A65,65,0,0,0,31.5,31.5Z"/><g class="f"><path class="d" d="M34,60Q62,47.8,71.35,43.92c17.77-7.39,21.47-8.68,23.87-8.72a4.2,4.2,0,0,1,2.48.74,2.68,2.68,0,0,1,.91,1.74,10.67,10.67,0,0,1,.11,2.52c-1,10.12-5.13,34.68-7.25,46-.9,4.8-2.66,6.4-4.37,6.56C83.38,93.11,80.56,90.32,77,88c-5.63-3.7-8.82-6-14.28-9.6-6.32-4.16-2.23-6.45,1.37-10.19,1-1,17.32-15.87,17.64-17.23a1.33,1.33,0,0,0-.3-1.13,1.48,1.48,0,0,0-1.32-.13q-.85.2-27,17.85c-2.55,1.75-4.87,2.61-6.94,2.56-2.29,0-6.68-1.29-10-2.35-4-1.31-7.19-2-6.92-4.21Q29.49,61.81,34,60Z"/></g></svg>